PathFileType	4	(X/Y/Z)	 1.8Hz3min.trc
DataRate	CameraRate	NumFrames	NumMarkers	Units	OrigDataRate	OrigDataStartFrame	OrigNumFrames
200	200	9	43	m	200	376	1000
Frame#	Time	C7			LSH			RSH			MAN			RASI			LASI			HIPR			HIPL			RPSI			LPSI			COX			RTHI1			RTHI2			RTHI3			RTHI4			RLKN			RMKN			RSHA1			RSHA2			RSHA3			RSHA4			RLMAL			RMMAL			RHEEL			RMET5			RMET1			RTOE			LTHI1			LTHI2			LTHI3			LTHI4			LLKN			LMKN			LSHA1			LSHA2			LSHA3			LSHA4			LLMAL			LMMAL			LHEEL			LMET5			LMET1			LTOE			
		X1	Y1	Z1	X2	Y2	Z2	X3	Y3	Z3	X4	Y4	Z4	X5	Y5	Z5	X6	Y6	Z6	X7	Y7	Z7	X8	Y8	Z8	X9	Y9	Z9	X10	Y10	Z10	X11	Y11	Z11	X12	Y12	Z12	X13	Y13	Z13	X14	Y14	Z14	X15	Y15	Z15	X16	Y16	Z16	X17	Y17	Z17	X18	Y18	Z18	X19	Y19	Z19	X20	Y20	Z20	X21	Y21	Z21	X22	Y22	Z22	X23	Y23	Z23	X24	Y24	Z24	X25	Y25	Z25	X26	Y26	Z26	X27	Y27	Z27	X28	Y28	Z28	X29	Y29	Z29	X30	Y30	Z30	X31	Y31	Z31	X32	Y32	Z32	X33	Y33	Z33	X34	Y34	Z34	X35	Y35	Z35	X36	Y36	Z36	X37	Y37	Z37	X38	Y38	Z38	X39	Y39	Z39	X40	Y40	Z40	X41	Y41	Z41	X42	Y42	Z42	X43	Y43	Z43	
376	1.8800	-0.178755	1.482838	-0.540990	-0.115307	1.435278	-0.743720	-0.110703	1.414406	-0.338344	-0.061989	1.374307	-0.540440	-0.179505	0.946559	-0.425102	-0.178039	0.953280	-0.659995	-0.262621	1.001825	-0.373588	-0.261659	0.993019	-0.704779	-0.362004	1.000910	-0.491706	-0.355259	1.001895	-0.595623	-0.361930	0.999599	-0.542764	-0.229740	0.684866	-0.335152	-0.210197	0.628423	-0.330149	-0.148175	0.646135	-0.325751	-0.159754	0.706515	-0.330880	-0.160875	0.445958	-0.333577	-0.149654	0.432592	-0.462910	-0.275197	0.315694	-0.318908	-0.298725	0.280217	-0.323056	-0.244220	0.253075	-0.317939	-0.227749	0.289280	-0.318674	-0.360552	0.094810	-0.338913	-0.326076	0.092729	-0.428929	-0.420388	0.064003	-0.387057	-0.259901	0.028269	-0.297741	-0.207659	0.044495	-0.378347	-0.180385	0.033837	-0.371130	-0.229149	0.694861	-0.736773	-0.209026	0.636668	-0.739268	-0.146211	0.652291	-0.745446	-0.158926	0.710933	-0.744044	-0.163278	0.439124	-0.726556	-0.136937	0.430665	-0.602880	-0.271656	0.296174	-0.733213	-0.287203	0.254379	-0.725922	-0.237191	0.235035	-0.720675	-0.216469	0.269744	-0.726896	-0.341901	0.085111	-0.708515	-0.325960	0.088890	-0.615784	-0.413034	0.058524	-0.665480	-0.237267	0.027530	-0.732983	-0.202855	0.044474	-0.650022	-0.176323	0.033165	-0.649071	
377	1.8850	-0.179865	1.485965	-0.540786	-0.116339	1.439121	-0.743592	-0.111204	1.418046	-0.338228	-0.062560	1.378055	-0.540407	-0.178283	0.949196	-0.425012	-0.177117	0.956031	-0.659913	-0.261099	1.004560	-0.373491	-0.260950	0.995874	-0.704554	-0.360879	1.003471	-0.491429	-0.354264	1.004416	-0.595340	-0.360855	1.002126	-0.542472	-0.230467	0.687078	-0.335112	-0.211410	0.630472	-0.330135	-0.149259	0.647667	-0.325459	-0.160319	0.708149	-0.330507	-0.163394	0.447451	-0.333399	-0.151774	0.433991	-0.462662	-0.276735	0.316281	-0.318840	-0.300017	0.280621	-0.323027	-0.245322	0.253889	-0.317923	-0.229096	0.290220	-0.318625	-0.360845	0.094911	-0.339024	-0.326091	0.092913	-0.428939	-0.420329	0.064109	-0.387198	-0.259913	0.028244	-0.297788	-0.207661	0.044489	-0.378337	-0.180386	0.033847	-0.371121	-0.229594	0.697255	-0.736493	-0.209799	0.638959	-0.739011	-0.146934	0.654213	-0.745458	-0.159307	0.712929	-0.744072	-0.165022	0.440993	-0.726477	-0.138581	0.432442	-0.602843	-0.272639	0.297450	-0.733131	-0.288015	0.255598	-0.725804	-0.237931	0.236437	-0.720590	-0.217341	0.271246	-0.726849	-0.341764	0.085766	-0.708580	-0.325633	0.089648	-0.615892	-0.412815	0.059421	-0.665346	-0.237221	0.027543	-0.732884	-0.202786	0.044461	-0.650086	-0.176284	0.033158	-0.649094	
378	1.8900	-0.180948	1.489262	-0.540580	-0.117370	1.443131	-0.743459	-0.111711	1.421885	-0.338085	-0.063152	1.381939	-0.540382	-0.177105	0.952027	-0.424921	-0.176194	0.958973	-0.659854	-0.259582	1.007506	-0.373427	-0.260192	0.998914	-0.704355	-0.359743	1.006231	-0.491181	-0.353254	1.007141	-0.595083	-0.359769	1.004860	-0.542217	-0.231217	0.689490	-0.335089	-0.212653	0.632720	-0.330126	-0.150375	0.649394	-0.325191	-0.160918	0.709977	-0.330170	-0.165990	0.449154	-0.333226	-0.154004	0.435605	-0.462420	-0.278304	0.317035	-0.318754	-0.301315	0.281179	-0.322975	-0.246480	0.254923	-0.317888	-0.230457	0.291351	-0.318535	-0.361004	0.095149	-0.339059	-0.326048	0.093248	-0.428897	-0.420222	0.064405	-0.387299	-0.259912	0.028224	-0.297840	-0.207655	0.044480	-0.378323	-0.180375	0.033863	-0.371105	-0.230096	0.699836	-0.736204	-0.210653	0.641422	-0.738744	-0.147729	0.656295	-0.745467	-0.159748	0.715089	-0.744102	-0.166857	0.443048	-0.726377	-0.140382	0.434442	-0.602762	-0.273666	0.298863	-0.733020	-0.288853	0.256951	-0.725658	-0.238697	0.237989	-0.720496	-0.218251	0.272908	-0.726792	-0.341596	0.086532	-0.708644	-0.325254	0.090487	-0.615998	-0.412556	0.060455	-0.665176	-0.237166	0.027570	-0.732760	-0.202704	0.044451	-0.650154	-0.176236	0.033154	-0.649119	
379	1.8950	-0.182006	1.492736	-0.540378	-0.118398	1.447291	-0.743319	-0.112219	1.425888	-0.337934	-0.063744	1.386048	-0.540348	-0.175935	0.955056	-0.424850	-0.175278	0.962090	-0.659820	-0.258093	1.010646	-0.373393	-0.259386	1.002133	-0.704174	-0.358606	1.009160	-0.490964	-0.352236	1.010058	-0.594851	-0.358674	1.007788	-0.541989	-0.231979	0.692108	-0.335068	-0.213911	0.635174	-0.330116	-0.151510	0.651332	-0.324943	-0.161534	0.712004	-0.329874	-0.168626	0.451071	-0.333045	-0.156326	0.437437	-0.462182	-0.279888	0.317960	-0.318629	-0.302616	0.281918	-0.322901	-0.247661	0.256177	-0.317821	-0.231820	0.292690	-0.318418	-0.361159	0.095550	-0.339068	-0.325937	0.093725	-0.428767	-0.420065	0.064907	-0.387349	-0.259896	0.028212	-0.297892	-0.207642	0.044469	-0.378304	-0.180350	0.033883	-0.371084	-0.230652	0.702601	-0.735905	-0.211573	0.644062	-0.738466	-0.148589	0.658543	-0.745466	-0.160238	0.717417	-0.744128	-0.168758	0.445284	-0.726254	-0.142293	0.436652	-0.602648	-0.274725	0.300424	-0.732879	-0.289709	0.258444	-0.725489	-0.239463	0.239717	-0.720409	-0.219185	0.274734	-0.726727	-0.341387	0.087427	-0.708709	-0.324816	0.091453	-0.616085	-0.412238	0.061669	-0.664997	-0.237100	0.027610	-0.732614	-0.202610	0.044444	-0.650226	-0.176178	0.033152	-0.649146	
380	1.9000	-0.183023	1.496359	-0.540164	-0.119415	1.451588	-0.743167	-0.112750	1.430049	-0.337781	-0.064338	1.390353	-0.540307	-0.174782	0.958276	-0.424794	-0.174374	0.965382	-0.659811	-0.256645	1.013967	-0.373388	-0.258528	1.005524	-0.704009	-0.357468	1.012260	-0.490779	-0.351215	1.013150	-0.594640	-0.357580	1.010895	-0.541788	-0.232745	0.694916	-0.335046	-0.215166	0.637830	-0.330101	-0.152641	0.653483	-0.324716	-0.162162	0.714238	-0.329623	-0.171268	0.453208	-0.332855	-0.158708	0.439485	-0.461945	-0.281465	0.319077	-0.318464	-0.303895	0.282839	-0.322798	-0.248784	0.257634	-0.317712	-0.233172	0.294215	-0.318266	-0.361287	0.096112	-0.339023	-0.325777	0.094410	-0.428573	-0.419863	0.065657	-0.387326	-0.259862	0.028211	-0.297943	-0.207623	0.044454	-0.378279	-0.180315	0.033911	-0.371054	-0.231249	0.705548	-0.735597	-0.212541	0.646878	-0.738172	-0.149497	0.660962	-0.745454	-0.160774	0.719914	-0.744150	-0.170692	0.447705	-0.726113	-0.144267	0.439061	-0.602497	-0.275801	0.302139	-0.732711	-0.290568	0.260091	-0.725304	-0.240233	0.241603	-0.720326	-0.220135	0.276723	-0.726668	-0.341132	0.088475	-0.708787	-0.324318	0.092523	-0.616175	-0.411858	0.063063	-0.664812	-0.237023	0.027667	-0.732448	-0.202505	0.044440	-0.650304	-0.176116	0.033153	-0.649177	
381	1.9050	-0.183997	1.500119	-0.539941	-0.120421	1.456005	-0.743006	-0.113271	1.434397	-0.337617	-0.064934	1.394823	-0.540263	-0.173621	0.961666	-0.424763	-0.173492	0.968835	-0.659825	-0.255243	1.017460	-0.373408	-0.257624	1.009078	-0.703860	-0.356340	1.015531	-0.490623	-0.350198	1.016406	-0.594447	-0.356495	1.014159	-0.541612	-0.233509	0.697912	-0.335027	-0.216399	0.640678	-0.330074	-0.153754	0.655845	-0.324515	-0.162791	0.716677	-0.329411	-0.173894	0.455567	-0.332650	-0.161114	0.441738	-0.461713	-0.283008	0.320400	-0.318239	-0.305136	0.283971	-0.322640	-0.249821	0.259289	-0.317545	-0.234488	0.295942	-0.318067	-0.361379	0.096938	-0.338889	-0.325562	0.095267	-0.428302	-0.419608	0.066651	-0.387204	-0.259806	0.028225	-0.297991	-0.207597	0.044438	-0.378249	-0.180272	0.033946	-0.371018	-0.231880	0.708669	-0.735279	-0.213544	0.649882	-0.737868	-0.150447	0.663557	-0.745434	-0.161352	0.722580	-0.744168	-0.172637	0.450305	-0.725961	-0.146264	0.441665	-0.602334	-0.276887	0.304019	-0.732530	-0.291419	0.261889	-0.725110	-0.240986	0.243664	-0.720257	-0.221084	0.278887	-0.726621	-0.340830	0.089665	-0.708881	-0.323752	0.093709	-0.616278	-0.411405	0.064643	-0.664642	-0.236930	0.027743	-0.732263	-0.202387	0.044442	-0.650389	-0.176049	0.033155	-0.649212	
382	1.9100	-0.184919	1.503988	-0.539713	-0.121407	1.460525	-0.742829	-0.113774	1.438864	-0.337437	-0.065508	1.399470	-0.540209	-0.172464	0.965207	-0.424750	-0.172636	0.972436	-0.659860	-0.253892	1.021114	-0.373452	-0.256670	1.012799	-0.703712	-0.355225	1.018943	-0.490482	-0.349192	1.019821	-0.594272	-0.355425	1.017575	-0.541460	-0.234258	0.701084	-0.335001	-0.217600	0.643712	-0.330040	-0.154844	0.658407	-0.324341	-0.163412	0.719303	-0.329235	-0.176460	0.458134	-0.332423	-0.163509	0.444187	-0.461488	-0.284499	0.321955	-0.317946	-0.306316	0.285330	-0.322402	-0.250758	0.261162	-0.317321	-0.235757	0.297890	-0.317822	-0.361331	0.097871	-0.338570	-0.325288	0.096295	-0.427912	-0.419290	0.067916	-0.386997	-0.259725	0.028253	-0.298036	-0.207558	0.044430	-0.378205	-0.180236	0.033973	-0.370979	-0.232537	0.711955	-0.734958	-0.214572	0.653055	-0.737566	-0.151424	0.666323	-0.745407	-0.161963	0.725420	-0.744177	-0.174576	0.453083	-0.725804	-0.148244	0.444450	-0.602152	-0.277959	0.306057	-0.732348	-0.292250	0.263838	-0.724916	-0.241708	0.245894	-0.720215	-0.222017	0.281225	-0.726596	-0.340480	0.091020	-0.709002	-0.323125	0.095031	-0.616425	-0.410881	0.066416	-0.664498	-0.236819	0.027839	-0.732065	-0.202257	0.044451	-0.650481	-0.175978	0.033160	-0.649251	
383	1.9150	-0.185798	1.507960	-0.539478	-0.122402	1.465124	-0.742666	-0.114267	1.443433	-0.337271	-0.066050	1.404311	-0.540139	-0.171328	0.968888	-0.424753	-0.171806	0.976167	-0.659916	-0.252602	1.024913	-0.373520	-0.255699	1.016691	-0.703553	-0.354125	1.022486	-0.490362	-0.348198	1.023379	-0.594113	-0.354375	1.021124	-0.541338	-0.234987	0.704417	-0.334963	-0.218764	0.646913	-0.329996	-0.155901	0.661158	-0.324193	-0.164020	0.722111	-0.329091	-0.178949	0.460902	-0.332180	-0.165875	0.446822	-0.461268	-0.285914	0.323723	-0.317589	-0.307430	0.286912	-0.322091	-0.251572	0.263232	-0.317039	-0.236949	0.300048	-0.317534	-0.361236	0.098957	-0.338169	-0.324977	0.097519	-0.427449	-0.418910	0.069421	-0.386698	-0.259618	0.028297	-0.298076	-0.207509	0.044432	-0.378145	-0.180206	0.033993	-0.370937	-0.233206	0.715409	-0.734638	-0.215611	0.656389	-0.737257	-0.152412	0.669267	-0.745372	-0.162592	0.728430	-0.744183	-0.176489	0.456022	-0.725648	-0.150194	0.447403	-0.601959	-0.279007	0.308249	-0.732175	-0.293048	0.265931	-0.724732	-0.242393	0.248283	-0.720201	-0.222918	0.283724	-0.726592	-0.340078	0.092534	-0.709150	-0.322436	0.096515	-0.616608	-0.410285	0.068371	-0.664389	-0.236690	0.027955	-0.731857	-0.202114	0.044469	-0.650579	-0.175905	0.033166	-0.649297	
384	1.9200	-0.186613	1.511994	-0.539236	-0.123406	1.469786	-0.742516	-0.114738	1.448105	-0.337115	-0.066580	1.409135	-0.540085	-0.170223	0.972688	-0.424765	-0.171005	0.980020	-0.659990	-0.251358	1.028847	-0.373614	-0.254721	1.020752	-0.703380	-0.353043	1.026158	-0.490265	-0.347218	1.027073	-0.593963	-0.353347	1.024798	-0.541237	-0.235693	0.707896	-0.334922	-0.219882	0.650271	-0.329941	-0.156918	0.664078	-0.324075	-0.164608	0.725091	-0.328975	-0.181346	0.463864	-0.331925	-0.168192	0.449627	-0.461051	-0.287244	0.325706	-0.317180	-0.308452	0.288712	-0.321680	-0.252268	0.265497	-0.316699	-0.238055	0.302417	-0.317178	-0.361079	0.100268	-0.337669	-0.324620	0.098996	-0.426921	-0.418464	0.071154	-0.386298	-0.259484	0.028363	-0.298111	-0.207450	0.044443	-0.378068	-0.180184	0.034008	-0.370892	-0.233879	0.719013	-0.734330	-0.216651	0.659885	-0.736957	-0.153399	0.672372	-0.745332	-0.163231	0.731598	-0.744185	-0.178366	0.459112	-0.725500	-0.152093	0.450524	-0.601758	-0.280020	0.310578	-0.732022	-0.293797	0.268165	-0.724570	-0.243033	0.250811	-0.720217	-0.223777	0.286374	-0.726624	-0.339632	0.094198	-0.709336	-0.321685	0.098134	-0.616845	-0.409611	0.070489	-0.664317	-0.236535	0.028098	-0.731639	-0.201958	0.044498	-0.650685	-0.175829	0.033173	-0.649349	
